<?xml version="1.0" encoding="UTF-8" standalone="no"?>
<!-- Created with Inkscape (http://www.inkscape.org/) -->

<svg
   xmlns:dc="http://purl.org/dc/elements/1.1/"
   xmlns:cc="http://creativecommons.org/ns#"
   xmlns:rdf="http://www.w3.org/1999/02/22-rdf-syntax-ns#"
   xmlns:svg="http://www.w3.org/2000/svg"
   xmlns="http://www.w3.org/2000/svg"
   xmlns:sodipodi="http://sodipodi.sourceforge.net/DTD/sodipodi-0.dtd"
   xmlns:inkscape="http://www.inkscape.org/namespaces/inkscape"
   width="462.16016"
   height="448.01401"
   id="svg2"
   version="1.1"
   inkscape:version="0.48.4 r9939"
   sodipodi:docname="art.svg"
   inkscape:export-filename="/home/defo/workspace/python/django/telegraphy/telegraphy/contrib/telegraphy_django/static/telegraphy/img/logo.png"
   inkscape:export-xdpi="7.79"
   inkscape:export-ydpi="7.79">
  <defs
     id="defs4" />
  <sodipodi:namedview
     id="base"
     pagecolor="#ffffff"
     bordercolor="#666666"
     borderopacity="1.0"
     inkscape:pageopacity="0.0"
     inkscape:pageshadow="2"
     inkscape:zoom="0.35"
     inkscape:cx="-425.48623"
     inkscape:cy="182.29547"
     inkscape:document-units="px"
     inkscape:current-layer="layer1"
     showgrid="false"
     fit-margin-top="10"
     fit-margin-left="10"
     fit-margin-right="10"
     fit-margin-bottom="10"
     inkscape:window-width="1366"
     inkscape:window-height="720"
     inkscape:window-x="0"
     inkscape:window-y="0"
     inkscape:window-maximized="1" />
  <metadata
     id="metadata7">
    <rdf:RDF>
      <cc:Work
         rdf:about="">
        <dc:format>image/svg+xml</dc:format>
        <dc:type
           rdf:resource="http://purl.org/dc/dcmitype/StillImage" />
        <dc:title></dc:title>
      </cc:Work>
    </rdf:RDF>
  </metadata>
  <g
     inkscape:label="Capa 1"
     inkscape:groupmode="layer"
     id="layer1"
     transform="translate(39.40625,-215.90625)">
    <path
       id="path3840"
       d="M -29.40625,493.53125 42.65625,426.375 c 0,0 -3.64918,10.14395 -5.34375,19.8125 6.28955,-5.37374 11.95372,-11.83396 16.96875,-19.46875 5.04248,-7.63193 7.56256,-30.07655 7.5625,-67.28125 1e-5,-6.02933 -0.23161,-11.76994 -0.65625,-17.21875 6.219012,-5.75609 12.51965,-11.19284 18.90625,-16.3125 8.579737,5.71353 16.463762,12.50724 23.46875,20.1875 0.10756,3.19652 0.1875,6.5197 0.1875,10.09375 2e-5,31.20833 -4.5054,55.65824 -13.5,73.375 -7.88721,15.11704 -22.69798,27.94731 -44.40625,38.5 9.11192,5.44763 21.96875,9.625 21.96875,9.625 l -97.21875,15.84375 z"
       style="color:#000000;fill:#aa4400;fill-opacity:1;fill-rule:nonzero;stroke:none;stroke-width:0.40000001;marker:none;visibility:visible;display:inline;overflow:visible;enable-background:accumulate"
       inkscape:connector-curvature="0" />
    <rect
       style="color:#000000;fill:#aa4400;fill-opacity:1;fill-rule:nonzero;stroke:none;stroke-width:0.40065372;marker:none;visibility:visible;display:inline;overflow:visible;enable-background:accumulate"
       id="rect3783"
       width="78.402565"
       height="7.7370653"
       x="228.83052"
       y="500.2417"
       rx="7.847733"
       ry="6.7740722"
       transform="matrix(0.99739273,0.07216469,-0.15240836,0.98831761,0,0)" />
    <rect
       style="color:#000000;fill:#aa4400;fill-opacity:1;fill-rule:nonzero;stroke:none;stroke-width:0.40065372;marker:none;visibility:visible;display:inline;overflow:visible;enable-background:accumulate"
       id="rect3779"
       width="78.402565"
       height="7.7370653"
       x="204.05962"
       y="338.13544"
       rx="7.847733"
       ry="6.7740722"
       transform="matrix(0.99739273,0.07216469,-0.15240836,0.98831761,0,0)" />
    <rect
       transform="matrix(0.99739273,0.07216469,-0.15240836,0.98831761,0,0)"
       ry="6.7740722"
       rx="7.847733"
       y="380.16299"
       x="210.4817"
       height="7.7370653"
       width="78.402565"
       id="rect3777"
       style="color:#000000;fill:#aa4400;fill-opacity:1;fill-rule:nonzero;stroke:none;stroke-width:0.40065372;marker:none;visibility:visible;display:inline;overflow:visible;enable-background:accumulate" />
    <rect
       style="color:#000000;fill:#aa4400;fill-opacity:1;fill-rule:nonzero;stroke:none;stroke-width:0.40065372;marker:none;visibility:visible;display:inline;overflow:visible;enable-background:accumulate"
       id="rect3775"
       width="78.402565"
       height="7.7370653"
       x="216.59798"
       y="420.18924"
       rx="7.847733"
       ry="6.7740722"
       transform="matrix(0.99739273,0.07216469,-0.15240836,0.98831761,0,0)" />
    <rect
       transform="matrix(0.99739273,0.07216469,-0.15240836,0.98831761,0,0)"
       ry="6.7740722"
       rx="7.847733"
       y="460.21548"
       x="222.71425"
       height="7.7370653"
       width="78.402565"
       id="rect3773"
       style="color:#000000;fill:#aa4400;fill-opacity:1;fill-rule:nonzero;stroke:none;stroke-width:0.40065372;marker:none;visibility:visible;display:inline;overflow:visible;enable-background:accumulate" />
    <path
       style="font-size:418.65673828px;font-style:normal;font-variant:normal;font-weight:normal;font-stretch:normal;text-align:start;line-height:125%;letter-spacing:0px;word-spacing:0px;writing-mode:lr-tb;text-anchor:start;fill:#000000;fill-opacity:1;stroke:none;font-family:DejaVu Serif;-inkscape-font-specification:DejaVu Serif"
       d="M 233.15625,10 135.9375,25.84375 c 0,0 12.85683,4.17737 21.96875,9.625 -21.70827,10.55269 -36.51904,23.38296 -44.40625,38.5 -8.9946,17.71676 -13.500018,42.16667 -13.5,73.375 -1.8e-5,20.03346 1.68669,34.13568 5.09375,42.3125 6.13264,14.71845 13.64167,26.43427 22.5,35.15625 9.81221,9.40344 19.49148,16.37772 29.03125,20.875 8.04053,3.81589 25.62988,5.98613 52.75,6.53125 l 0,86.46875 c 4.84114,20.55094 76.36104,36.12624 119.53125,43.90625 0.33048,-2.06283 0.90827,-4.04798 1.6875,-5.90625 -26.52812,-8.97981 -52.62117,-16.71198 -83.625,-38 l 0,-86.46875 c 26.98354,-0.81768 44.5729,-2.98793 52.75,-6.53125 8.85807,-3.67959 18.53734,-10.65387 29.03125,-20.875 8.85804,-8.72198 16.33582,-20.4378 22.46875,-35.15625 3.40676,-8.17682 5.12473,-22.27904 5.125,-42.3125 -2.7e-4,-31.61717 -4.50569,-56.06709 -13.5,-73.375 C 328.67022,46.4401 308.10851,32.87262 281.125,33.28125 c -31.34491,0.54534 -52.20526,14.11282 -62.5625,40.6875 -6.1328,16.08138 -9.18763,39.4618 -9.1875,70.125 l 0,86.0625 c -30.39087,-2.58932 -49.13219,-11.06542 -56.21875,-25.375 -7.49554,-15.12719 -11.25006,-35.33906 -11.25,-60.6875 -6e-5,-37.2047 2.52002,-59.64932 7.5625,-67.28125 5.01503,-7.63479 10.6792,-14.09501 16.96875,-19.46875 -1.69457,9.66855 -5.34375,19.8125 -5.34375,19.8125 L 233.15625,10 z M 281.125,53.71875 c 11.85628,2e-4 20.43481,7.69413 25.75,23.09375 5.04219,14.71856 7.56226,37.16318 7.5625,67.28125 -2.4e-4,25.75728 -3.75474,45.96916 -11.25,60.6875 -6.81429,13.62818 -25.55561,22.0218 -56.21875,25.15625 -1.7e-4,-18.80681 -1.7e-4,-47.4123 0,-85.84375 0.13611,-34.61536 2.6562,-57.05998 7.5625,-67.28125 7.35902,-15.39962 16.23617,-23.09355 26.59375,-23.09375 z"
       transform="translate(-39.40625,215.90625)"
       id="path2990"
       inkscape:connector-curvature="0" />
    <rect
       style="color:#000000;fill:#d45500;fill-opacity:1;fill-rule:nonzero;stroke:none;stroke-width:4.48653889;marker:none;visibility:visible;display:inline;overflow:visible;enable-background:accumulate"
       id="rect2993"
       width="85.714287"
       height="10.714286"
       x="-87.587067"
       y="525.36792"
       rx="7.872582"
       ry="6.8355546"
       transform="matrix(0.90032109,-0.4352263,0.4352263,0.90032109,0,0)" />
    <rect
       transform="matrix(0.90032109,-0.4352263,0.4352263,0.90032109,0,0)"
       ry="6.8355546"
       rx="7.872582"
       y="489.35547"
       x="-70.178009"
       height="10.714286"
       width="85.714287"
       id="rect3763"
       style="color:#000000;fill:#d45500;fill-opacity:1;fill-rule:nonzero;stroke:none;stroke-width:4.48653889;marker:none;visibility:visible;display:inline;overflow:visible;enable-background:accumulate" />
    <rect
       style="color:#000000;fill:#d45500;fill-opacity:1;fill-rule:nonzero;stroke:none;stroke-width:4.48653889;marker:none;visibility:visible;display:inline;overflow:visible;enable-background:accumulate"
       id="rect3765"
       width="85.714287"
       height="10.714286"
       x="-52.768955"
       y="453.34265"
       rx="7.872582"
       ry="6.8355546"
       transform="matrix(0.90032109,-0.4352263,0.4352263,0.90032109,0,0)" />
    <rect
       transform="matrix(0.90032109,-0.4352263,0.4352263,0.90032109,0,0)"
       ry="6.8355546"
       rx="7.872582"
       y="417.32983"
       x="-35.359905"
       height="10.714286"
       width="85.714287"
       id="rect3767"
       style="color:#000000;fill:#d45500;fill-opacity:1;fill-rule:nonzero;stroke:none;stroke-width:4.48653889;marker:none;visibility:visible;display:inline;overflow:visible;enable-background:accumulate" />
    <rect
       style="color:#000000;fill:#d45500;fill-opacity:1;fill-rule:nonzero;stroke:none;stroke-width:4.48653889;marker:none;visibility:visible;display:inline;overflow:visible;enable-background:accumulate"
       id="rect3769"
       width="85.714287"
       height="10.714286"
       x="-17.950853"
       y="381.31702"
       rx="7.872582"
       ry="6.8355546"
       transform="matrix(0.90032109,-0.4352263,0.4352263,0.90032109,0,0)" />
    <rect
       transform="matrix(0.90032109,-0.4352263,0.4352263,0.90032109,0,0)"
       ry="6.8355546"
       rx="7.872582"
       y="561.38074"
       x="-104.99612"
       height="10.714286"
       width="85.714287"
       id="rect3785"
       style="color:#000000;fill:#d45500;fill-opacity:1;fill-rule:nonzero;stroke:none;stroke-width:4.48653889;marker:none;visibility:visible;display:inline;overflow:visible;enable-background:accumulate" />
    <g
       id="g3825"
       transform="matrix(-0.96592583,-0.25881905,0.25881905,-0.96592583,326.05877,1387.5243)">
      <path
         id="rect3812"
         transform="translate(-39.40625,215.90625)"
         d="m 167.46875,515.09375 c -4.36142,0 -7.875,3.47207 -7.875,7.78125 0,4.30918 3.51358,7.78125 7.875,7.78125 l 37.59375,0 0,-15.5625 -37.59375,0 z"
         style="color:#000000;fill:#000000;fill-opacity:1;fill-rule:nonzero;stroke:#000000;stroke-width:3.00000024;stroke-linecap:butt;stroke-linejoin:miter;stroke-miterlimit:4;stroke-opacity:1;stroke-dasharray:none;stroke-dashoffset:0;marker:none;visibility:visible;display:inline;overflow:visible;enable-background:accumulate"
         inkscape:connector-curvature="0" />
      <path
         id="rect3814"
         transform="translate(-39.40625,215.90625)"
         d="m 167.46875,553 c -4.36142,0 -7.875,3.47207 -7.875,7.78125 0,4.30918 3.51358,7.78125 7.875,7.78125 l 37.59375,0 0,-15.5625 -37.59375,0 z"
         style="color:#000000;fill:#000000;fill-opacity:1;fill-rule:nonzero;stroke:#000000;stroke-width:3.00000024;stroke-linecap:butt;stroke-linejoin:miter;stroke-miterlimit:4;stroke-opacity:1;stroke-dasharray:none;stroke-dashoffset:0;marker:none;visibility:visible;display:inline;overflow:visible;enable-background:accumulate"
         inkscape:connector-curvature="0" />
      <path
         id="rect3807"
         transform="translate(-39.40625,215.90625)"
         d="m 215.0625,498.0625 0,85.84375 44.65625,0 c 23.94827,0 43.21875,-19.12221 43.21875,-42.90625 0,-23.78404 -19.27048,-42.9375 -43.21875,-42.9375 l -44.65625,0 z M 259,526.34375 c 8.08943,0 14.65625,6.56682 14.65625,14.65625 0,8.08943 -6.56682,14.625 -14.65625,14.625 -8.08943,0 -14.65625,-6.53557 -14.65625,-14.625 0,-8.08943 6.56682,-14.65625 14.65625,-14.65625 z"
         style="color:#000000;fill:#000000;fill-opacity:1;fill-rule:nonzero;stroke:#000000;stroke-width:3;stroke-linecap:butt;stroke-linejoin:miter;stroke-miterlimit:4;stroke-opacity:1;stroke-dasharray:none;stroke-dashoffset:0;marker:none;visibility:visible;display:inline;overflow:visible;enable-background:accumulate"
         inkscape:connector-curvature="0" />
    </g>
  </g>
</svg>
